<svg viewBox="-1 -1 87 57" version="1.1" xmlns="http://www.w3.org/2000/svg" xmlns:xlink="http://www.w3.org/1999/xlink">
    <defs>
        <g id="pin">
            <circle r="1" fill="#888"/>
            <circle r="0.65" fill="#ccc"/>
            <circle r="0.25" fill="#000"/>
        </g>
        <g id="breadboard-pentamer">
            <rect width="2" height="2"/>
            <rect x="2.5" width="2" height="2"/>
            <rect x="5"   width="2" height="2"/>
            <rect x="7.5" width="2" height="2"/>
            <rect x="10"  width="2" height="2"/>
        </g>
        <g id="breadboard-10x17" stroke="black" stroke-width="0.1" fill="none">
            <rect width="34" height="46"/>
            <use xlink:href="#breadboard-pentamer" x="2" y="2"/>    <use xlink:href="#breadboard-pentamer" x="20" y="2"/>
            <use xlink:href="#breadboard-pentamer" x="2" y="4.5"/>  <use xlink:href="#breadboard-pentamer" x="20" y="4.5"/>
            <use xlink:href="#breadboard-pentamer" x="2" y="7"/>    <use xlink:href="#breadboard-pentamer" x="20" y="7"/>
            <use xlink:href="#breadboard-pentamer" x="2" y="9.5"/>  <use xlink:href="#breadboard-pentamer" x="20" y="9.5"/>
            <use xlink:href="#breadboard-pentamer" x="2" y="12"/>   <use xlink:href="#breadboard-pentamer" x="20" y="12"/>
            <use xlink:href="#breadboard-pentamer" x="2" y="14.5"/> <use xlink:href="#breadboard-pentamer" x="20" y="14.5"/>
            <use xlink:href="#breadboard-pentamer" x="2" y="17"/>   <use xlink:href="#breadboard-pentamer" x="20" y="17"/>
            <use xlink:href="#breadboard-pentamer" x="2" y="19.5"/> <use xlink:href="#breadboard-pentamer" x="20" y="19.5"/>
            <use xlink:href="#breadboard-pentamer" x="2" y="22"/>   <use xlink:href="#breadboard-pentamer" x="20" y="22"/>
            <use xlink:href="#breadboard-pentamer" x="2" y="24.5"/> <use xlink:href="#breadboard-pentamer" x="20" y="24.5"/>
            <use xlink:href="#breadboard-pentamer" x="2" y="27"/>   <use xlink:href="#breadboard-pentamer" x="20" y="27"/>
            <use xlink:href="#breadboard-pentamer" x="2" y="29.5"/> <use xlink:href="#breadboard-pentamer" x="20" y="29.5"/>
            <use xlink:href="#breadboard-pentamer" x="2" y="32"/>   <use xlink:href="#breadboard-pentamer" x="20" y="32"/>
            <use xlink:href="#breadboard-pentamer" x="2" y="34.5"/> <use xlink:href="#breadboard-pentamer" x="20" y="34.5"/>
            <use xlink:href="#breadboard-pentamer" x="2" y="37"/>   <use xlink:href="#breadboard-pentamer" x="20" y="37"/>
            <use xlink:href="#breadboard-pentamer" x="2" y="39.5"/> <use xlink:href="#breadboard-pentamer" x="20" y="39.5"/>
            <use xlink:href="#breadboard-pentamer" x="2" y="42"/>   <use xlink:href="#breadboard-pentamer" x="20" y="42"/>
            <circle cx="17" cy="4" r="2"/>
            <circle cx="17" cy="41" r="2"/>
            <rect x="15" y="8" width="4" height="30"/>
        </g>
        <g id="breadboard-bar" stroke="black" stroke-width="0.1" fill="none">
            <rect width="82" height="9"/>
            <use xlink:href="#breadboard-pentamer" x="5" y="2.25"/>  <use xlink:href="#breadboard-pentamer" x="5" y="4.75"/>
            <use xlink:href="#breadboard-pentamer" x="20" y="2.25"/> <use xlink:href="#breadboard-pentamer" x="20" y="4.75"/>
            <use xlink:href="#breadboard-pentamer" x="35" y="2.25"/> <use xlink:href="#breadboard-pentamer" x="35" y="4.75"/>
            <use xlink:href="#breadboard-pentamer" x="50" y="2.25"/> <use xlink:href="#breadboard-pentamer" x="50" y="4.75"/>
            <use xlink:href="#breadboard-pentamer" x="65" y="2.25"/> <use xlink:href="#breadboard-pentamer" x="65" y="4.75"/>
        </g>
        <g id="esp32-cam">
            <rect rx="1" ry="1" width="27" height="39" fill="black"/>
            <path d="M6.5,0.1 l0,14 l2.5,0 l0,-0.5 l0.5,0 l0,1 l7,0 l0,0.5 l0.7,0 l0,-0.5 l0.5,0 l0,0.5 l0.5,0 l0,-1.5 l0.5,0 l0,1.5 l0.5,0 l0,-1 l0.5,0 l0,1 l0.5,0 l0,-1 l0.5,0 l0,-13 l-9.5,0 l-2,-1z" fill="#aaa"/>
            <rect x="9.7" y="6.4" width="8" height="8" fill="#303030"/>
            <circle cx="13.7" cy="10.4" r="3.8" fill="#454545"/>
            <circle cx="13.7" cy="10.4" r="1" fill="#280028"/>
            <rect x="10.9" y="14.4" width="5.6" height="7" fill="#d1972b"/>
            <rect x="5" y="23" width="17" height="4" fill="white"/>
            <path d="M7.5,21.4 l-1,0.6 l-0.6,0 l0,2 l1,0 l0,-1 l0.2,0 l0,1 l0.3,0 l0,-1 l0.2,0 l0,1 l0.3,0 l0,-1 l0.2,0 l0,1 l0.3,0 l0,-1 l0.2,0 l0,1 l0.3,0 l0,-1 l0.2,0 l0,1 l0.3,0 l0,-1 l0.2,0 l0,1 l0.3,0 l0,-1 l0.2,0 l0,1 l0.3,0 l0,-1 l0.2,0 l0,1 l0.3,0 l0,-1 l0.2,0 l0,1 l0.3,0 l0,-1 l0.2,0 l0,1 l0.3,0 l0,-1 l0.2,0 l0,1 l0.3,0 l0,-1 l0.2,0 l0,1 l0.3,0 l0,-1 l0.2,0 l0,1 l0.3,0 l0,-1 l0.2,0 l0,1 l0.3,0 l0,-1 l0.2,0 l0,1 l0.3,0 l0,-1 l0.2,0 l0,1 l0.3,0 l0,-1 l0.2,0 l0,1 l0.3,0 l0,-1 l0.2,0 l0,1 l0.3,0 l0,-1 l0.2,0 l0,1 l0.3,0 l0,-1 l0.2,0 l0,1 l0.3,0 l0,-1 l0.2,0 l0,1 l0.3,0 l0,-1 l0.2,0 l0,1 l0.3,0 l0,-1 l0.2,0 l0,1 l0.3,0 l0,-1 l0.2,0 l0,1 l0.3,0 l0,-1 l0.2,0 l0,1 l0.3,0 l0,-1 l0.2,0 l0,1 l0.3,0 l0,-1 l0.2,0 l0,1 l1,0 l0,-2 l-0.6,0 l-1,-0.6" fill="#333"/>
            <text x="5" y="37" font-size="3" fill="white">ESP32-CAM</text>
            <use xlink:href="#pin" x="2.5" y="4.5" /> <use xlink:href="#pin" x="24.5" y="4.5" />
            <use xlink:href="#pin" x="2.5" y="7"   /> <use xlink:href="#pin" x="24.5" y="7"   />
            <use xlink:href="#pin" x="2.5" y="9.5" /> <use xlink:href="#pin" x="24.5" y="9.5" />
            <use xlink:href="#pin" x="2.5" y="12"  /> <use xlink:href="#pin" x="24.5" y="12"  />
            <use xlink:href="#pin" x="2.5" y="14.5"/> <use xlink:href="#pin" x="24.5" y="14.5"/>
            <use xlink:href="#pin" x="2.5" y="17"  /> <use xlink:href="#pin" x="24.5" y="17"  />
            <use xlink:href="#pin" x="2.5" y="19.5"/> <use xlink:href="#pin" x="24.5" y="19.5"/>
            <use xlink:href="#pin" x="2.5" y="22"  /> <use xlink:href="#pin" x="24.5" y="22"  />
        </g>
        <g id="HC-SR04">
            <defs>
                <mask id="HC-SR04-board" width="20" height="45">
                    <rect width="20" height="45" fill="#fff"/>
                    <circle cx="1.3"  cy="1.3"  r="1" />
                    <circle cx="1.3"  cy="43.7" r="1" />
                    <circle cx="18.7" cy="1.3"  r="1" />
                    <circle cx="18.7" cy="43.7" r="1" />
                </mask>
                <pattern id="crossHatching" width="1" height="1" patternUnits="userSpaceOnUse" patternTransform="scale(0.5 0.5)">
                    <line x1="0" y1="0" x2="1" y2="1" stroke="#666" stroke-width="0.1"/>
                    <line x1="0" y1="1" x2="1" y2="0" stroke="#666" stroke-width="0.1"/>
                </pattern>
                <g id="HC-SR04-column">
                    <circle r="8" fill="#ebebeb"/>
                    <circle r="6.5" fill="#220"/>
                    <circle r="5.5" fill="#333"/>
                    <circle r="3.5" fill="#666"/>
                    <circle r="0.5" fill="#000"/>
                    <circle r="6.5" fill="url(#crossHatching)"/>
                </g>
            </defs>
            <rect width="20" height="45" mask="url(#HC-SR04-board)" fill="#05a"/>
            <use xlink:href="#HC-SR04-column" x="10" y="10.5"/>
            <use xlink:href="#HC-SR04-column" x="10" y="34.5"/>
            <rect x="16" y="17.5" rx="1.5" ry="1.5" width="3" height="10" fill="#e7e7e7"/>
            <rect x="16.5" y="18" rx="1" ry="1" width="2" height="9" fill="#aaa"/>
            <text x="13" y="18" font-size="2" fill="white" transform="rotate(90 13 18)">HC-SR04</text>
            <g font-size="1.5" fill="white" font-weight="bold">
                <text x="3.5" y="19.25">Vcc</text>
                <text x="3.5" y="21.75">Trig</text>
                <text x="3.5" y="24.25">Echo</text>
                <text x="3.5" y="26.75">GND</text>
            </g>
            <use xlink:href="#pin" x="2" y="18.75"/>
            <use xlink:href="#pin" x="2" y="21.25"/>
            <use xlink:href="#pin" x="2" y="23.75"/>
            <use xlink:href="#pin" x="2" y="26.25"/>
        </g>
    </defs>
    <use xlink:href="#breadboard-10x17" y="9"/>
    <use xlink:href="#breadboard-10x17" x="50" y="9"/>
    <use xlink:href="#breadboard-bar"/>
    <rect width="20" height="45" mask="url(#HC-SR04-board)" fill="#fff" opacity="0.8" transform="translate(6 5.75)"/>
    <g stroke-width="1" stroke-linecap="round" stroke-linejoin="round" fill="none">
        <polyline points="   6,3.25  5.5,3.25  5.5,24.5" stroke="red"/>
        <polyline points="  21,3.25   21,17  " stroke="red"/>
        <polyline points="28.5,5.75 28.5,19.5" stroke="black"/>
        <polyline points="  13,19.5   21,19.5" stroke="black"/>
        <polyline points="10.5,19.5 10.5,32  " stroke="black"/>
        <polyline points="  13,27     21,27  " stroke="green"/>
        <polyline points="  13,29.5   21,29.5" stroke="magenta"/>
    </g>
    <g stroke-width="1" stroke-linecap="round" fill="none">
        <polyline points="  26,3.25   31,3.25" stroke="red"/>
        <polyline points="  51,5.75   56,5.75" stroke="black"/>
    </g>
    <g stroke-width="0.3" fill="none">
        <polyline points="  31,3.25 38.5,3.25 38.5,10" stroke="red"/>
        <polyline points="  51,5.75 45.5,5.75 45.5,10.6" stroke="black"/>
        <polyline points="  44,10.6   47,10.6" stroke="black"/>
        <polyline points="44.5,11.2 46.5,11.2" stroke="black"/>
        <polyline points="  45,11.8   46,11.8" stroke="black"/>
    </g>
    <text x="36" y="12" font-size="2" fill="red">+5V</text>
    <use xlink:href="#esp32-cam" x="28.5" y="12.5" opacity="0.8"/>
    <use xlink:href="#HC-SR04" x="6" y="5.75" opacity="0.8"/>
</svg>
