<svg xmlns="http://www.w3.org/2000/svg" viewBox="0 0 36.34 50.36"><defs><style>.cls-1,.cls-2,.cls-3,.cls-4,.cls-5{fill:none;}.cls-1,.cls-4,.cls-5{stroke:#000;}.cls-1{stroke-width:0.1px;}.cls-2,.cls-3{stroke:red;}.cls-2,.cls-4{stroke-linecap:round;}.cls-3,.cls-5{stroke-width:0.3px;}.cls-14,.cls-6{isolation:isolate;font-family:ArialMT, Arial;}.cls-6{font-size:2px;fill:red;}.cls-7{fill:#aaa;}.cls-8{fill:#303030;}.cls-9{fill:#454545;}.cls-10{fill:#280028;}.cls-11{fill:#d1972b;}.cls-12,.cls-14{fill:#fff;}.cls-13{fill:#333;}.cls-14{font-size:3px;}.cls-15{fill:#888;}.cls-16{fill:#ccc;}</style></defs><g id="图层_2" data-name="图层 2"><g id="图层_1-2" data-name="图层 1"><g id="breadboard-10x17"><rect class="cls-1" x="0.05" y="5.88" width="32.84" height="44.43"/><g id="breadboard-pentamer"><rect class="cls-1" x="1.98" y="7.81" width="1.93" height="1.93"/><rect class="cls-1" x="4.4" y="7.81" width="1.93" height="1.93"/><rect class="cls-1" x="6.81" y="7.81" width="1.93" height="1.93"/><rect class="cls-1" x="9.23" y="7.81" width="1.93" height="1.93"/><rect class="cls-1" x="11.64" y="7.81" width="1.93" height="1.93"/></g><g id="breadboard-pentamer-2" data-name="breadboard-pentamer"><rect class="cls-1" x="19.37" y="7.81" width="1.93" height="1.93"/><rect class="cls-1" x="21.78" y="7.81" width="1.93" height="1.93"/><rect class="cls-1" x="24.2" y="7.81" width="1.93" height="1.93"/><rect class="cls-1" x="26.61" y="7.81" width="1.93" height="1.93"/><rect class="cls-1" x="29.03" y="7.81" width="1.93" height="1.93"/></g><g id="breadboard-pentamer-3" data-name="breadboard-pentamer"><rect class="cls-1" x="1.98" y="10.22" width="1.93" height="1.93"/><rect class="cls-1" x="4.4" y="10.22" width="1.93" height="1.93"/><rect class="cls-1" x="6.81" y="10.22" width="1.93" height="1.93"/><rect class="cls-1" x="9.23" y="10.22" width="1.93" height="1.93"/><rect class="cls-1" x="11.64" y="10.22" width="1.93" height="1.93"/></g><g id="breadboard-pentamer-4" data-name="breadboard-pentamer"><rect class="cls-1" x="19.37" y="10.22" width="1.93" height="1.93"/><rect class="cls-1" x="21.78" y="10.22" width="1.93" height="1.93"/><rect class="cls-1" x="24.2" y="10.22" width="1.93" height="1.93"/><rect class="cls-1" x="26.61" y="10.22" width="1.93" height="1.93"/><rect class="cls-1" x="29.03" y="10.22" width="1.93" height="1.93"/></g><g id="breadboard-pentamer-5" data-name="breadboard-pentamer"><rect class="cls-1" x="1.98" y="12.64" width="1.93" height="1.93"/><rect class="cls-1" x="4.4" y="12.64" width="1.93" height="1.93"/><rect class="cls-1" x="6.81" y="12.64" width="1.93" height="1.93"/><rect class="cls-1" x="9.23" y="12.64" width="1.93" height="1.93"/><rect class="cls-1" x="11.64" y="12.64" width="1.93" height="1.93"/></g><g id="breadboard-pentamer-6" data-name="breadboard-pentamer"><rect class="cls-1" x="19.37" y="12.64" width="1.93" height="1.93"/><rect class="cls-1" x="21.78" y="12.64" width="1.93" height="1.93"/><rect class="cls-1" x="24.2" y="12.64" width="1.93" height="1.93"/><rect class="cls-1" x="26.61" y="12.64" width="1.93" height="1.93"/><rect class="cls-1" x="29.03" y="12.64" width="1.93" height="1.93"/></g><g id="breadboard-pentamer-7" data-name="breadboard-pentamer"><rect class="cls-1" x="1.98" y="15.05" width="1.93" height="1.93"/><rect class="cls-1" x="4.4" y="15.05" width="1.93" height="1.93"/><rect class="cls-1" x="6.81" y="15.05" width="1.93" height="1.93"/><rect class="cls-1" x="9.23" y="15.05" width="1.93" height="1.93"/><rect class="cls-1" x="11.64" y="15.05" width="1.93" height="1.93"/></g><g id="breadboard-pentamer-8" data-name="breadboard-pentamer"><rect class="cls-1" x="19.37" y="15.05" width="1.93" height="1.93"/><rect class="cls-1" x="21.78" y="15.05" width="1.93" height="1.93"/><rect class="cls-1" x="24.2" y="15.05" width="1.93" height="1.93"/><rect class="cls-1" x="26.61" y="15.05" width="1.93" height="1.93"/><rect class="cls-1" x="29.03" y="15.05" width="1.93" height="1.93"/></g><g id="breadboard-pentamer-9" data-name="breadboard-pentamer"><rect class="cls-1" x="1.98" y="17.47" width="1.93" height="1.93"/><rect class="cls-1" x="4.4" y="17.47" width="1.93" height="1.93"/><rect class="cls-1" x="6.81" y="17.47" width="1.93" height="1.93"/><rect class="cls-1" x="9.23" y="17.47" width="1.93" height="1.93"/><rect class="cls-1" x="11.64" y="17.47" width="1.93" height="1.93"/></g><g id="breadboard-pentamer-10" data-name="breadboard-pentamer"><rect class="cls-1" x="19.37" y="17.47" width="1.93" height="1.93"/><rect class="cls-1" x="21.78" y="17.47" width="1.93" height="1.93"/><rect class="cls-1" x="24.2" y="17.47" width="1.93" height="1.93"/><rect class="cls-1" x="26.61" y="17.47" width="1.93" height="1.93"/><rect class="cls-1" x="29.03" y="17.47" width="1.93" height="1.93"/></g><g id="breadboard-pentamer-11" data-name="breadboard-pentamer"><rect class="cls-1" x="1.98" y="19.88" width="1.93" height="1.93"/><rect class="cls-1" x="4.4" y="19.88" width="1.93" height="1.93"/><rect class="cls-1" x="6.81" y="19.88" width="1.93" height="1.93"/><rect class="cls-1" x="9.23" y="19.88" width="1.93" height="1.93"/><rect class="cls-1" x="11.64" y="19.88" width="1.93" height="1.93"/></g><g id="breadboard-pentamer-12" data-name="breadboard-pentamer"><rect class="cls-1" x="19.37" y="19.88" width="1.93" height="1.93"/><rect class="cls-1" x="21.78" y="19.88" width="1.93" height="1.93"/><rect class="cls-1" x="24.2" y="19.88" width="1.93" height="1.93"/><rect class="cls-1" x="26.61" y="19.88" width="1.93" height="1.93"/><rect class="cls-1" x="29.03" y="19.88" width="1.93" height="1.93"/></g><g id="breadboard-pentamer-13" data-name="breadboard-pentamer"><rect class="cls-1" x="1.98" y="22.3" width="1.93" height="1.93"/><rect class="cls-1" x="4.4" y="22.3" width="1.93" height="1.93"/><rect class="cls-1" x="6.81" y="22.3" width="1.93" height="1.93"/><rect class="cls-1" x="9.23" y="22.3" width="1.93" height="1.93"/><rect class="cls-1" x="11.64" y="22.3" width="1.93" height="1.93"/></g><g id="breadboard-pentamer-14" data-name="breadboard-pentamer"><rect class="cls-1" x="19.37" y="22.3" width="1.93" height="1.93"/><rect class="cls-1" x="21.78" y="22.3" width="1.93" height="1.93"/><rect class="cls-1" x="24.2" y="22.3" width="1.93" height="1.93"/><rect class="cls-1" x="26.61" y="22.3" width="1.93" height="1.93"/><rect class="cls-1" x="29.03" y="22.3" width="1.93" height="1.93"/></g><g id="breadboard-pentamer-15" data-name="breadboard-pentamer"><rect class="cls-1" x="1.98" y="24.71" width="1.93" height="1.93"/><rect class="cls-1" x="4.4" y="24.71" width="1.93" height="1.93"/><rect class="cls-1" x="6.81" y="24.71" width="1.93" height="1.93"/><rect class="cls-1" x="9.23" y="24.71" width="1.93" height="1.93"/><rect class="cls-1" x="11.64" y="24.71" width="1.93" height="1.93"/></g><g id="breadboard-pentamer-16" data-name="breadboard-pentamer"><rect class="cls-1" x="19.37" y="24.71" width="1.93" height="1.93"/><rect class="cls-1" x="21.78" y="24.71" width="1.93" height="1.93"/><rect class="cls-1" x="24.2" y="24.71" width="1.93" height="1.93"/><rect class="cls-1" x="26.61" y="24.71" width="1.93" height="1.93"/><rect class="cls-1" x="29.03" y="24.71" width="1.93" height="1.93"/></g><g id="breadboard-pentamer-17" data-name="breadboard-pentamer"><rect class="cls-1" x="1.98" y="27.13" width="1.93" height="1.93"/><rect class="cls-1" x="4.4" y="27.13" width="1.93" height="1.93"/><rect class="cls-1" x="6.81" y="27.13" width="1.93" height="1.93"/><rect class="cls-1" x="9.23" y="27.13" width="1.93" height="1.93"/><rect class="cls-1" x="11.64" y="27.13" width="1.93" height="1.93"/></g><g id="breadboard-pentamer-18" data-name="breadboard-pentamer"><rect class="cls-1" x="19.37" y="27.13" width="1.93" height="1.93"/><rect class="cls-1" x="21.78" y="27.13" width="1.93" height="1.93"/><rect class="cls-1" x="24.2" y="27.13" width="1.93" height="1.93"/><rect class="cls-1" x="26.61" y="27.13" width="1.93" height="1.93"/><rect class="cls-1" x="29.03" y="27.13" width="1.93" height="1.93"/></g><g id="breadboard-pentamer-19" data-name="breadboard-pentamer"><rect class="cls-1" x="1.98" y="29.54" width="1.93" height="1.93"/><rect class="cls-1" x="4.4" y="29.54" width="1.93" height="1.93"/><rect class="cls-1" x="6.81" y="29.54" width="1.93" height="1.93"/><rect class="cls-1" x="9.23" y="29.54" width="1.93" height="1.93"/><rect class="cls-1" x="11.64" y="29.54" width="1.93" height="1.93"/></g><g id="breadboard-pentamer-20" data-name="breadboard-pentamer"><rect class="cls-1" x="19.37" y="29.54" width="1.93" height="1.93"/><rect class="cls-1" x="21.78" y="29.54" width="1.93" height="1.93"/><rect class="cls-1" x="24.2" y="29.54" width="1.93" height="1.93"/><rect class="cls-1" x="26.61" y="29.54" width="1.93" height="1.93"/><rect class="cls-1" x="29.03" y="29.54" width="1.93" height="1.93"/></g><g id="breadboard-pentamer-21" data-name="breadboard-pentamer"><rect class="cls-1" x="1.98" y="31.96" width="1.93" height="1.93"/><rect class="cls-1" x="4.4" y="31.96" width="1.93" height="1.93"/><rect class="cls-1" x="6.81" y="31.96" width="1.93" height="1.93"/><rect class="cls-1" x="9.23" y="31.96" width="1.93" height="1.93"/><rect class="cls-1" x="11.64" y="31.96" width="1.93" height="1.93"/></g><g id="breadboard-pentamer-22" data-name="breadboard-pentamer"><rect class="cls-1" x="19.37" y="31.96" width="1.93" height="1.93"/><rect class="cls-1" x="21.78" y="31.96" width="1.93" height="1.93"/><rect class="cls-1" x="24.2" y="31.96" width="1.93" height="1.93"/><rect class="cls-1" x="26.61" y="31.96" width="1.93" height="1.93"/><rect class="cls-1" x="29.03" y="31.96" width="1.93" height="1.93"/></g><g id="breadboard-pentamer-23" data-name="breadboard-pentamer"><rect class="cls-1" x="1.98" y="34.37" width="1.93" height="1.93"/><rect class="cls-1" x="4.4" y="34.37" width="1.93" height="1.93"/><rect class="cls-1" x="6.81" y="34.37" width="1.93" height="1.93"/><rect class="cls-1" x="9.23" y="34.37" width="1.93" height="1.93"/><rect class="cls-1" x="11.64" y="34.37" width="1.93" height="1.93"/></g><g id="breadboard-pentamer-24" data-name="breadboard-pentamer"><rect class="cls-1" x="19.37" y="34.37" width="1.93" height="1.93"/><rect class="cls-1" x="21.78" y="34.37" width="1.93" height="1.93"/><rect class="cls-1" x="24.2" y="34.37" width="1.93" height="1.93"/><rect class="cls-1" x="26.61" y="34.37" width="1.93" height="1.93"/><rect class="cls-1" x="29.03" y="34.37" width="1.93" height="1.93"/></g><g id="breadboard-pentamer-25" data-name="breadboard-pentamer"><rect class="cls-1" x="1.98" y="36.79" width="1.93" height="1.93"/><rect class="cls-1" x="4.4" y="36.79" width="1.93" height="1.93"/><rect class="cls-1" x="6.81" y="36.79" width="1.93" height="1.93"/><rect class="cls-1" x="9.23" y="36.79" width="1.93" height="1.93"/><rect class="cls-1" x="11.64" y="36.79" width="1.93" height="1.93"/></g><g id="breadboard-pentamer-26" data-name="breadboard-pentamer"><rect class="cls-1" x="19.37" y="36.79" width="1.93" height="1.93"/><rect class="cls-1" x="21.78" y="36.79" width="1.93" height="1.93"/><rect class="cls-1" x="24.2" y="36.79" width="1.93" height="1.93"/><rect class="cls-1" x="26.61" y="36.79" width="1.93" height="1.93"/><rect class="cls-1" x="29.03" y="36.79" width="1.93" height="1.93"/></g><g id="breadboard-pentamer-27" data-name="breadboard-pentamer"><rect class="cls-1" x="1.98" y="39.2" width="1.93" height="1.93"/><rect class="cls-1" x="4.4" y="39.2" width="1.93" height="1.93"/><rect class="cls-1" x="6.81" y="39.2" width="1.93" height="1.93"/><rect class="cls-1" x="9.23" y="39.2" width="1.93" height="1.93"/><rect class="cls-1" x="11.64" y="39.2" width="1.93" height="1.93"/></g><g id="breadboard-pentamer-28" data-name="breadboard-pentamer"><rect class="cls-1" x="19.37" y="39.2" width="1.93" height="1.93"/><rect class="cls-1" x="21.78" y="39.2" width="1.93" height="1.93"/><rect class="cls-1" x="24.2" y="39.2" width="1.93" height="1.93"/><rect class="cls-1" x="26.61" y="39.2" width="1.93" height="1.93"/><rect class="cls-1" x="29.03" y="39.2" width="1.93" height="1.93"/></g><g id="breadboard-pentamer-29" data-name="breadboard-pentamer"><rect class="cls-1" x="1.98" y="41.62" width="1.93" height="1.93"/><rect class="cls-1" x="4.4" y="41.62" width="1.93" height="1.93"/><rect class="cls-1" x="6.81" y="41.62" width="1.93" height="1.93"/><rect class="cls-1" x="9.23" y="41.62" width="1.93" height="1.93"/><rect class="cls-1" x="11.64" y="41.62" width="1.93" height="1.93"/></g><g id="breadboard-pentamer-30" data-name="breadboard-pentamer"><rect class="cls-1" x="19.37" y="41.62" width="1.93" height="1.93"/><rect class="cls-1" x="21.78" y="41.62" width="1.93" height="1.93"/><rect class="cls-1" x="24.2" y="41.62" width="1.93" height="1.93"/><rect class="cls-1" x="26.61" y="41.62" width="1.93" height="1.93"/><rect class="cls-1" x="29.03" y="41.62" width="1.93" height="1.93"/></g><g id="breadboard-pentamer-31" data-name="breadboard-pentamer"><rect class="cls-1" x="1.98" y="44.03" width="1.93" height="1.93"/><rect class="cls-1" x="4.4" y="44.03" width="1.93" height="1.93"/><rect class="cls-1" x="6.81" y="44.03" width="1.93" height="1.93"/><rect class="cls-1" x="9.23" y="44.03" width="1.93" height="1.93"/><rect class="cls-1" x="11.64" y="44.03" width="1.93" height="1.93"/></g><g id="breadboard-pentamer-32" data-name="breadboard-pentamer"><rect class="cls-1" x="19.37" y="44.03" width="1.93" height="1.93"/><rect class="cls-1" x="21.78" y="44.03" width="1.93" height="1.93"/><rect class="cls-1" x="24.2" y="44.03" width="1.93" height="1.93"/><rect class="cls-1" x="26.61" y="44.03" width="1.93" height="1.93"/><rect class="cls-1" x="29.03" y="44.03" width="1.93" height="1.93"/></g><g id="breadboard-pentamer-33" data-name="breadboard-pentamer"><rect class="cls-1" x="1.98" y="46.45" width="1.93" height="1.93"/><rect class="cls-1" x="4.4" y="46.45" width="1.93" height="1.93"/><rect class="cls-1" x="6.81" y="46.45" width="1.93" height="1.93"/><rect class="cls-1" x="9.23" y="46.45" width="1.93" height="1.93"/><rect class="cls-1" x="11.64" y="46.45" width="1.93" height="1.93"/></g><g id="breadboard-pentamer-34" data-name="breadboard-pentamer"><rect class="cls-1" x="19.37" y="46.45" width="1.93" height="1.93"/><rect class="cls-1" x="21.78" y="46.45" width="1.93" height="1.93"/><rect class="cls-1" x="24.2" y="46.45" width="1.93" height="1.93"/><rect class="cls-1" x="26.61" y="46.45" width="1.93" height="1.93"/><rect class="cls-1" x="29.03" y="46.45" width="1.93" height="1.93"/></g><circle class="cls-1" cx="16.47" cy="9.74" r="1.93"/><circle class="cls-1" cx="16.47" cy="45.48" r="1.93"/><rect class="cls-1" x="14.54" y="13.61" width="3.86" height="28.98"/></g><line class="cls-2" x1="2.99" y1="13.66" x2="2.99" y2="8.66"/><polyline class="cls-3" points="2.99 8.66 2.99 1.16 9.74 1.16"/><line class="cls-4" x1="30.14" y1="35.49" x2="30.14" y2="30.49"/><polyline class="cls-5" points="30.14 35.49 30.14 40.99 34.99 40.99"/><line class="cls-5" x1="34.99" y1="42.49" x2="34.99" y2="39.49"/><line class="cls-5" x1="35.59" y1="41.99" x2="35.59" y2="39.99"/><line class="cls-5" x1="36.19" y1="41.49" x2="36.19" y2="40.49"/><text class="cls-6" transform="translate(10.19 1.72)">+5V</text><g id="esp32-cam"><rect x="2.91" y="8.81" width="27" height="39" rx="1"/><path class="cls-7" d="M9.41,8.91v14h2.5v-.5h.5v1h7v.5h.7v-.5h.5v.5h.5v-1.5h.5v1.5h.5v-1h.5v1h.5v-1h.5v-13h-9.5l-2-1Z"/><rect class="cls-8" x="12.61" y="15.21" width="8" height="8"/><circle class="cls-9" cx="16.61" cy="19.21" r="3.8"/><circle class="cls-10" cx="16.61" cy="19.21" r="1"/><rect class="cls-11" x="13.81" y="23.21" width="5.6" height="7"/><rect class="cls-12" x="7.91" y="31.81" width="17" height="4"/><path class="cls-13" d="M10.41,30.21l-1,.6h-.6v2h1v-1H10v1h.3v-1h.2v1h.3v-1H11v1h.3v-1h.2v1h.3v-1H12v1h.3v-1h.2v1h.3v-1H13v1h.3v-1h.2v1h.3v-1H14v1h.3v-1h.2v1h.3v-1H15v1h.3v-1h.2v1h.3v-1H16v1h.3v-1h.2v1h.3v-1H17v1h.3v-1h.2v1h.3v-1H18v1h.3v-1h.2v1h.3v-1H19v1h.3v-1h.2v1h.3v-1H20v1h.3v-1h.2v1h.3v-1H21v1h.3v-1h.2v1h.3v-1H22v1h.3v-1h.2v1h.3v-1H23v1h1v-2h-.6l-1-.6"/><text class="cls-14" transform="translate(7.91 45.81)">ESP32-CAM</text><g id="pin"><circle class="cls-15" cx="5.41" cy="13.31" r="1"/><circle class="cls-16" cx="5.41" cy="13.31" r="0.65"/><circle cx="5.41" cy="13.31" r="0.25"/></g><g id="pin-2" data-name="pin"><circle class="cls-15" cx="27.41" cy="13.31" r="1"/><circle class="cls-16" cx="27.41" cy="13.31" r="0.65"/><circle cx="27.41" cy="13.31" r="0.25"/></g><g id="pin-3" data-name="pin"><circle class="cls-15" cx="5.41" cy="15.81" r="1"/><circle class="cls-16" cx="5.41" cy="15.81" r="0.65"/><circle cx="5.41" cy="15.81" r="0.25"/></g><g id="pin-4" data-name="pin"><circle class="cls-15" cx="27.41" cy="15.81" r="1"/><circle class="cls-16" cx="27.41" cy="15.81" r="0.65"/><circle cx="27.41" cy="15.81" r="0.25"/></g><g id="pin-5" data-name="pin"><circle class="cls-15" cx="5.41" cy="18.31" r="1"/><circle class="cls-16" cx="5.41" cy="18.31" r="0.65"/><circle cx="5.41" cy="18.31" r="0.25"/></g><g id="pin-6" data-name="pin"><circle class="cls-15" cx="27.41" cy="18.31" r="1"/><circle class="cls-16" cx="27.41" cy="18.31" r="0.65"/><circle cx="27.41" cy="18.31" r="0.25"/></g><g id="pin-7" data-name="pin"><circle class="cls-15" cx="5.41" cy="20.81" r="1"/><circle class="cls-16" cx="5.41" cy="20.81" r="0.65"/><circle cx="5.41" cy="20.81" r="0.25"/></g><g id="pin-8" data-name="pin"><circle class="cls-15" cx="27.41" cy="20.81" r="1"/><circle class="cls-16" cx="27.41" cy="20.81" r="0.65"/><circle cx="27.41" cy="20.81" r="0.25"/></g><g id="pin-9" data-name="pin"><circle class="cls-15" cx="5.41" cy="23.31" r="1"/><circle class="cls-16" cx="5.41" cy="23.31" r="0.65"/><circle cx="5.41" cy="23.31" r="0.25"/></g><g id="pin-10" data-name="pin"><circle class="cls-15" cx="27.41" cy="23.31" r="1"/><circle class="cls-16" cx="27.41" cy="23.31" r="0.65"/><circle cx="27.41" cy="23.31" r="0.25"/></g><g id="pin-11" data-name="pin"><circle class="cls-15" cx="5.41" cy="25.81" r="1"/><circle class="cls-16" cx="5.41" cy="25.81" r="0.65"/><circle cx="5.41" cy="25.81" r="0.25"/></g><g id="pin-12" data-name="pin"><circle class="cls-15" cx="27.41" cy="25.81" r="1"/><circle class="cls-16" cx="27.41" cy="25.81" r="0.65"/><circle cx="27.41" cy="25.81" r="0.25"/></g><g id="pin-13" data-name="pin"><circle class="cls-15" cx="5.41" cy="28.31" r="1"/><circle class="cls-16" cx="5.41" cy="28.31" r="0.65"/><circle cx="5.41" cy="28.31" r="0.25"/></g><g id="pin-14" data-name="pin"><circle class="cls-15" cx="27.41" cy="28.31" r="1"/><circle class="cls-16" cx="27.41" cy="28.31" r="0.65"/><circle cx="27.41" cy="28.31" r="0.25"/></g><g id="pin-15" data-name="pin"><circle class="cls-15" cx="5.41" cy="30.81" r="1"/><circle class="cls-16" cx="5.41" cy="30.81" r="0.65"/><circle cx="5.41" cy="30.81" r="0.25"/></g><g id="pin-16" data-name="pin"><circle class="cls-15" cx="27.41" cy="30.81" r="1"/><circle class="cls-16" cx="27.41" cy="30.81" r="0.65"/><circle cx="27.41" cy="30.81" r="0.25"/></g></g></g></g></svg>